<svg xmlns="http://www.w3.org/2000/svg" width="21" height="21" viewBox="0 0 21 21"><g><g><path d="M20.998 10.5c0 5.798-4.7 10.498-10.498 10.498C4.702 20.998 0 16.298 0 10.499.001 4.701 4.701.001 10.5.001s10.498 4.7 10.498 10.498zm-7.004 0a.692.692 0 0 0-.205-.498l-4.54-4.54a.7.7 0 1 0-.989.99l4.047 4.047-4.047 4.046a.7.7 0 0 0 .99.99l4.539-4.538a.698.698 0 0 0 .205-.498z"/><path fill="#c7b299" d="M20.998 10.5c0 5.798-4.7 10.498-10.498 10.498C4.702 20.998 0 16.298 0 10.499.001 4.701 4.701.001 10.5.001s10.498 4.7 10.498 10.498zm-7.004 0a.692.692 0 0 0-.205-.498l-4.54-4.54a.7.7 0 1 0-.989.99l4.047 4.047-4.047 4.046a.7.7 0 0 0 .99.99l4.539-4.538a.698.698 0 0 0 .205-.498z"/></g></g></svg>