<svg xmlns="http://www.w3.org/2000/svg" width="18" height="24" viewBox="0 0 18 24"><g><g><path d="M17.994 5.997v14.998a3 3 0 0 1-2.999 3H3.002a3 3 0 0 1-2.999-3V5.997A2.999 2.999 0 0 1 3.002 3H4.5c0-1.657 2.013-3 4.498-3 2.484 0 4.497 1.343 4.497 3h1.5a2.999 2.999 0 0 1 2.998 2.998zM6 3h5.997c0-1.037-1.342-1.5-2.998-1.5-1.656 0-2.999.463-2.999 1.5zm10.495 16.496H1.502v1.5c0 .828.672 1.5 1.5 1.5h11.993a1.5 1.5 0 0 0 1.5-1.5zm0-13.498a1.5 1.5 0 0 0-1.5-1.5h-1.499v4.5h-1.499v-4.5H6v4.5H4.501v-4.5h-1.5a1.5 1.5 0 0 0-1.499 1.5v11.998h14.993z"/><path fill="#fff" d="M17.994 5.997v14.998a3 3 0 0 1-2.999 3H3.002a3 3 0 0 1-2.999-3V5.997A2.999 2.999 0 0 1 3.002 3H4.5c0-1.657 2.013-3 4.498-3 2.484 0 4.497 1.343 4.497 3h1.5a2.999 2.999 0 0 1 2.998 2.998zM6 3h5.997c0-1.037-1.342-1.5-2.998-1.5-1.656 0-2.999.463-2.999 1.5zm10.495 16.496H1.502v1.5c0 .828.672 1.5 1.5 1.5h11.993a1.5 1.5 0 0 0 1.5-1.5zm0-13.498a1.5 1.5 0 0 0-1.5-1.5h-1.499v4.5h-1.499v-4.5H6v4.5H4.501v-4.5h-1.5a1.5 1.5 0 0 0-1.499 1.5v11.998h14.993z"/></g></g></svg>