<svg xmlns="http://www.w3.org/2000/svg" width="44" height="44" viewBox="0 0 44 44"><g><g><path d="M44 13.75c0 12.445-8.003 23.702-21.406 30.113a1.368 1.368 0 0 1-1.188 0C8.002 37.453 0 26.195 0 13.75 0 6.166 6.168 0 13.75 0c2.985 0 5.873.975 8.25 2.764.063-.046.129-.087.191-.132.206-.149.413-.296.628-.434.12-.078.244-.148.365-.222.223-.133.443-.267.672-.388.084-.046.174-.085.26-.127.435-.216.884-.41 1.343-.582.175-.066.346-.135.524-.193.194-.063.392-.117.59-.172a13.665 13.665 0 0 1 1.182-.276c.255-.047.51-.086.768-.117.153-.02.305-.043.46-.057.42-.038.843-.064 1.267-.064C37.831 0 44 6.166 44 13.75zm-2.75 0c0-6.066-4.935-11-11-11-.357 0-.712.02-1.06.053-.16.017-.315.043-.47.066-.183.027-.367.051-.549.084-.201.04-.396.09-.593.14a9.836 9.836 0 0 0-.395.103 10.8 10.8 0 0 0-.646.212c-.103.037-.205.073-.305.113-.227.09-.45.189-.67.293a10.392 10.392 0 0 0-1.11.607c-.23.14-.454.294-.673.453-.05.038-.1.077-.152.113-.222.17-.443.348-.654.536-2.277 2.016-3.723 4.953-3.723 8.227a1.374 1.374 0 1 1-2.75 0c0-3.475 1.305-6.643 3.44-9.067a10.945 10.945 0 0 0-6.19-1.933c-6.065 0-11 4.934-11 11 0 11.177 7.184 21.358 19.25 27.347 12.066-5.99 19.25-16.17 19.25-27.347zm-2.75 0a1.375 1.375 0 0 1-2.75 0c0-3.034-2.467-5.5-5.5-5.5a1.375 1.375 0 0 1 0-2.75c4.55 0 8.25 3.7 8.25 8.25z"/><path fill="#c7b299" d="M44 13.75c0 12.445-8.003 23.702-21.406 30.113a1.368 1.368 0 0 1-1.188 0C8.002 37.453 0 26.195 0 13.75 0 6.166 6.168 0 13.75 0c2.985 0 5.873.975 8.25 2.764.063-.046.129-.087.191-.132.206-.149.413-.296.628-.434.12-.078.244-.148.365-.222.223-.133.443-.267.672-.388.084-.046.174-.085.26-.127.435-.216.884-.41 1.343-.582.175-.066.346-.135.524-.193.194-.063.392-.117.59-.172a13.665 13.665 0 0 1 1.182-.276c.255-.047.51-.086.768-.117.153-.02.305-.043.46-.057.42-.038.843-.064 1.267-.064C37.831 0 44 6.166 44 13.75zm-2.75 0c0-6.066-4.935-11-11-11-.357 0-.712.02-1.06.053-.16.017-.315.043-.47.066-.183.027-.367.051-.549.084-.201.04-.396.09-.593.14a9.836 9.836 0 0 0-.395.103 10.8 10.8 0 0 0-.646.212c-.103.037-.205.073-.305.113-.227.09-.45.189-.67.293a10.392 10.392 0 0 0-1.11.607c-.23.14-.454.294-.673.453-.05.038-.1.077-.152.113-.222.17-.443.348-.654.536-2.277 2.016-3.723 4.953-3.723 8.227a1.374 1.374 0 1 1-2.75 0c0-3.475 1.305-6.643 3.44-9.067a10.945 10.945 0 0 0-6.19-1.933c-6.065 0-11 4.934-11 11 0 11.177 7.184 21.358 19.25 27.347 12.066-5.99 19.25-16.17 19.25-27.347zm-2.75 0a1.375 1.375 0 0 1-2.75 0c0-3.034-2.467-5.5-5.5-5.5a1.375 1.375 0 0 1 0-2.75c4.55 0 8.25 3.7 8.25 8.25z"/></g></g></svg>