<svg xmlns="http://www.w3.org/2000/svg" width="49" height="49" viewBox="0 0 49 49"><g><g><path d="M47.668 19.717L33.402 33.985.534 48.463l14.477-32.872L29.279 1.327a1.589 1.589 0 1 1 2.248 2.249L17.683 17.422 9.107 36.888l2.999 2.999 19.467-8.573L45.42 17.47a1.587 1.587 0 0 1 2.248 0c.621.62.621 1.63 0 2.247zm-20.173 6.5l13.332-13.332a1.585 1.585 0 0 1 2.25 0c.623.62.623 1.625 0 2.249L29.745 28.466a1.594 1.594 0 0 1-2.25 0 1.593 1.593 0 0 1 0-2.25zm-3.48-3.482L37.348 9.403a1.59 1.59 0 1 1 2.25 2.25L26.265 24.985a1.592 1.592 0 0 1-2.25-2.25zm-3.48-3.482l13.332-13.33a1.586 1.586 0 0 1 2.25 0c.622.62.622 1.625 0 2.25l-13.333 13.33c-.31.31-.719.465-1.125.465s-.814-.154-1.125-.466a1.591 1.591 0 0 1 0-2.249z"/><path fill="#555" d="M47.668 19.717L33.402 33.985.534 48.463l14.477-32.872L29.279 1.327a1.589 1.589 0 1 1 2.248 2.249L17.683 17.422 9.107 36.888l2.999 2.999 19.467-8.573L45.42 17.47a1.587 1.587 0 0 1 2.248 0c.621.62.621 1.63 0 2.247zm-20.173 6.5l13.332-13.332a1.585 1.585 0 0 1 2.25 0c.623.62.623 1.625 0 2.249L29.745 28.466a1.594 1.594 0 0 1-2.25 0 1.593 1.593 0 0 1 0-2.25zm-3.48-3.482L37.348 9.403a1.59 1.59 0 1 1 2.25 2.25L26.265 24.985a1.592 1.592 0 0 1-2.25-2.25zm-3.48-3.482l13.332-13.33a1.586 1.586 0 0 1 2.25 0c.622.62.622 1.625 0 2.25l-13.333 13.33c-.31.31-.719.465-1.125.465s-.814-.154-1.125-.466a1.591 1.591 0 0 1 0-2.249z"/></g></g></svg>