<svg xmlns="http://www.w3.org/2000/svg" width="54" height="44" viewBox="0 0 54 44"><g><g><path d="M53.998 42.304a1.69 1.69 0 0 1-1.688 1.691H1.69a1.69 1.69 0 0 1-1.687-1.691 1.69 1.69 0 0 1 1.688-1.693h50.62a1.69 1.69 0 0 1 1.687 1.693zm0-8.46v1.691a1.69 1.69 0 0 1-1.688 1.692H1.69a1.69 1.69 0 0 1-1.687-1.692v-1.692c0-14.38 11.19-26.193 25.31-27.072-.01-.128 0-3.384 0-3.384H21.94a1.69 1.69 0 0 1-1.688-1.692A1.69 1.69 0 0 1 21.94.003h10.124a1.69 1.69 0 0 1 1.687 1.692 1.69 1.69 0 0 1-1.687 1.692h-3.375v3.384c14.12.878 25.31 12.692 25.31 27.072zm-3.375 0c0-13.083-10.575-23.689-23.622-23.689S3.378 20.761 3.378 33.843z"/><path fill="#c7b299" d="M53.998 42.304a1.69 1.69 0 0 1-1.688 1.691H1.69a1.69 1.69 0 0 1-1.687-1.691 1.69 1.69 0 0 1 1.688-1.693h50.62a1.69 1.69 0 0 1 1.687 1.693zm0-8.46v1.691a1.69 1.69 0 0 1-1.688 1.692H1.69a1.69 1.69 0 0 1-1.687-1.692v-1.692c0-14.38 11.19-26.193 25.31-27.072-.01-.128 0-3.384 0-3.384H21.94a1.69 1.69 0 0 1-1.688-1.692A1.69 1.69 0 0 1 21.94.003h10.124a1.69 1.69 0 0 1 1.687 1.692 1.69 1.69 0 0 1-1.687 1.692h-3.375v3.384c14.12.878 25.31 12.692 25.31 27.072zm-3.375 0c0-13.083-10.575-23.689-23.622-23.689S3.378 20.761 3.378 33.843z"/></g></g></svg>