<svg xmlns="http://www.w3.org/2000/svg" width="44" height="44" viewBox="0 0 44 44"><g><g><path d="M9.625 17.703c-.001-3.295 1.035-6.405 2.918-8.759 1.955-2.442 4.581-3.788 7.394-3.788 5.688 0 10.313 5.628 10.313 12.547 0 6.918-4.625 12.547-10.313 12.547-5.687 0-10.312-5.628-10.312-12.547zm2.747 0c.003 5.403 3.396 9.797 7.565 9.797 4.17 0 7.563-4.394 7.563-9.797 0-5.403-3.393-9.797-7.563-9.797-4.172 0-7.565 4.394-7.565 9.797zm27.503 22.45A3.854 3.854 0 0 1 36.024 44H3.848A3.852 3.852 0 0 1 0 40.153c0-6.219 5.057-11.278 11.274-11.278a1.374 1.374 0 1 1 0 2.75c-4.7 0-8.524 3.825-8.524 8.528a1.1 1.1 0 0 0 1.098 1.097h32.176c.607 0 1.101-.495 1.101-1.097 0-4.703-3.826-8.528-8.527-8.528a1.374 1.374 0 1 1 0-2.75c6.217 0 11.277 5.06 11.277 11.278zM19.06 3.144a1.375 1.375 0 0 1 .484-1.883A8.883 8.883 0 0 1 24.062 0c5.688 0 10.313 5.629 10.313 12.547 0 1.18-.134 2.342-.393 3.457a1.376 1.376 0 0 1-1.653 1.023 1.373 1.373 0 0 1-1.024-1.652c.213-.909.32-1.859.32-2.828 0-5.401-3.393-9.796-7.563-9.796-1.086 0-2.135.294-3.12.878-.65.386-1.495.169-1.882-.485zM44 34.74c0 .548-.112 1.074-.33 1.568a1.379 1.379 0 0 1-1.816.698 1.377 1.377 0 0 1-.698-1.815 1.06 1.06 0 0 0 .094-.448c0-4.7-3.55-8.618-8.25-8.618a1.374 1.374 0 1 1 0-2.75c6.217 0 11 5.152 11 11.365z"/><path fill="#c7b299" d="M9.625 17.703c-.001-3.295 1.035-6.405 2.918-8.759 1.955-2.442 4.581-3.788 7.394-3.788 5.688 0 10.313 5.628 10.313 12.547 0 6.918-4.625 12.547-10.313 12.547-5.687 0-10.312-5.628-10.312-12.547zm2.747 0c.003 5.403 3.396 9.797 7.565 9.797 4.17 0 7.563-4.394 7.563-9.797 0-5.403-3.393-9.797-7.563-9.797-4.172 0-7.565 4.394-7.565 9.797zm27.503 22.45A3.854 3.854 0 0 1 36.024 44H3.848A3.852 3.852 0 0 1 0 40.153c0-6.219 5.057-11.278 11.274-11.278a1.374 1.374 0 1 1 0 2.75c-4.7 0-8.524 3.825-8.524 8.528a1.1 1.1 0 0 0 1.098 1.097h32.176c.607 0 1.101-.495 1.101-1.097 0-4.703-3.826-8.528-8.527-8.528a1.374 1.374 0 1 1 0-2.75c6.217 0 11.277 5.06 11.277 11.278zM19.06 3.144a1.375 1.375 0 0 1 .484-1.883A8.883 8.883 0 0 1 24.062 0c5.688 0 10.313 5.629 10.313 12.547 0 1.18-.134 2.342-.393 3.457a1.376 1.376 0 0 1-1.653 1.023 1.373 1.373 0 0 1-1.024-1.652c.213-.909.32-1.859.32-2.828 0-5.401-3.393-9.796-7.563-9.796-1.086 0-2.135.294-3.12.878-.65.386-1.495.169-1.882-.485zM44 34.74c0 .548-.112 1.074-.33 1.568a1.379 1.379 0 0 1-1.816.698 1.377 1.377 0 0 1-.698-1.815 1.06 1.06 0 0 0 .094-.448c0-4.7-3.55-8.618-8.25-8.618a1.374 1.374 0 1 1 0-2.75c6.217 0 11 5.152 11 11.365z"/></g></g></svg>