<svg xmlns="http://www.w3.org/2000/svg" width="44" height="40" viewBox="0 0 44 40"><g><g><path d="M43.287 11.666L21.851 23.227.414 11.666 21.85.106zm-3.985 5.882l3.985 2.149-21.436 11.556L.414 19.697l3.985-2.15 17.452 9.41zm0 8.025l3.985 2.148-21.436 11.562L.414 27.721l3.985-2.148 17.452 9.412z"/><path fill="#c7b299" d="M43.287 11.666L21.851 23.227.414 11.666 21.85.106zm-3.985 5.882l3.985 2.149-21.436 11.556L.414 19.697l3.985-2.15 17.452 9.41zm0 8.025l3.985 2.148-21.436 11.562L.414 27.721l3.985-2.148 17.452 9.412z"/></g></g></svg>