<svg xmlns="http://www.w3.org/2000/svg" width="44" height="44" viewBox="0 0 44 44"><g><g><path d="M41.322 25.71c-1.44.513-2.837 1.762-3.243 2.743-.406.98-.298 2.85.357 4.23.656 1.379.259 3.427-.886 4.572-1.146 1.147-3.194 1.544-4.573.887-1.38-.656-3.252-.764-4.233-.356-.98.41-2.227 1.808-2.739 3.246-.512 1.436-2.241 2.601-3.861 2.601s-3.35-1.165-3.862-2.6c-.512-1.439-1.759-2.837-2.74-3.244-.982-.408-2.852-.303-4.232.353-1.38.657-3.427.26-4.573-.887-1.145-1.145-1.542-3.193-.886-4.572s.763-3.249.355-4.23c-.408-.979-1.8-2.23-3.24-2.742C1.526 25.199.36 23.47.36 21.85c0-1.62 1.166-3.35 2.606-3.857 1.44-.51 2.83-1.761 3.238-2.743.407-.984.303-2.853-.353-4.233-.656-1.38-.26-3.426.886-4.574 1.146-1.146 3.195-1.541 4.573-.885 1.38.656 3.25.764 4.231.357.981-.406 2.23-1.803 2.741-3.242.512-1.439 2.241-2.606 3.862-2.606 1.62 0 3.35 1.167 3.861 2.606.512 1.44 1.76 2.837 2.74 3.242.982.407 2.852.3 4.232-.357 1.38-.656 3.427-.261 4.573.885 1.145 1.148 1.542 3.195.886 4.574-.655 1.379-.76 3.252-.355 4.234.406.984 1.8 2.232 3.24 2.742 1.44.508 2.606 2.237 2.606 3.857s-1.166 3.349-2.605 3.86zM30.128 21.86c0-4.419-3.574-7.994-7.984-7.994a7.988 7.988 0 0 0-7.994 7.994 7.984 7.984 0 0 0 7.994 7.983 7.981 7.981 0 0 0 7.984-7.983z"/><path fill="#555" d="M41.322 25.71c-1.44.513-2.837 1.762-3.243 2.743-.406.98-.298 2.85.357 4.23.656 1.379.259 3.427-.886 4.572-1.146 1.147-3.194 1.544-4.573.887-1.38-.656-3.252-.764-4.233-.356-.98.41-2.227 1.808-2.739 3.246-.512 1.436-2.241 2.601-3.861 2.601s-3.35-1.165-3.862-2.6c-.512-1.439-1.759-2.837-2.74-3.244-.982-.408-2.852-.303-4.232.353-1.38.657-3.427.26-4.573-.887-1.145-1.145-1.542-3.193-.886-4.572s.763-3.249.355-4.23c-.408-.979-1.8-2.23-3.24-2.742C1.526 25.199.36 23.47.36 21.85c0-1.62 1.166-3.35 2.606-3.857 1.44-.51 2.83-1.761 3.238-2.743.407-.984.303-2.853-.353-4.233-.656-1.38-.26-3.426.886-4.574 1.146-1.146 3.195-1.541 4.573-.885 1.38.656 3.25.764 4.231.357.981-.406 2.23-1.803 2.741-3.242.512-1.439 2.241-2.606 3.862-2.606 1.62 0 3.35 1.167 3.861 2.606.512 1.44 1.76 2.837 2.74 3.242.982.407 2.852.3 4.232-.357 1.38-.656 3.427-.261 4.573.885 1.145 1.148 1.542 3.195.886 4.574-.655 1.379-.76 3.252-.355 4.234.406.984 1.8 2.232 3.24 2.742 1.44.508 2.606 2.237 2.606 3.857s-1.166 3.349-2.605 3.86zM30.128 21.86c0-4.419-3.574-7.994-7.984-7.994a7.988 7.988 0 0 0-7.994 7.994 7.984 7.984 0 0 0 7.994 7.983 7.981 7.981 0 0 0 7.984-7.983z"/></g></g></svg>