<svg xmlns="http://www.w3.org/2000/svg" width="48" height="44" viewBox="0 0 48 44"><g><g><path d="M46.043 42.749c0 .69-.552 1.25-1.234 1.25H1.234C.552 44 0 43.44 0 42.75c0-.691.552-1.251 1.234-1.251h43.575c.682 0 1.234.56 1.234 1.25zM19.586 16.396c.054-2.162.818-4.33 2.096-5.946 1.945-2.461 1.988-6.486.087-8.284a1.263 1.263 0 0 1-.06-1.768 1.223 1.223 0 0 1 1.744-.061c3.165 2.994 2.622 8.557.155 11.677-1.818 2.3-2.27 6.368-.155 8.37.498.471.525 1.263.06 1.768a1.222 1.222 0 0 1-1.744.06c-1.467-1.387-2.243-3.453-2.183-5.816zM48 19.614v2.4c0 3.44-2.76 6.24-6.154 6.24H39.09c-1.87 5.27-6.85 9.05-12.686 9.05H19.64c-7.431 0-13.476-6.129-13.476-13.662v-12.41c0-.691.552-1.251 1.234-1.251h7.915c1.607-2.476 1.535-6.127-.25-7.815a1.263 1.263 0 0 1-.06-1.768 1.222 1.222 0 0 1 1.745-.06c3.164 2.993 2.621 8.556.155 11.676-1.819 2.3-2.272 6.369-.155 8.37.498.471.525 1.263.06 1.768a1.223 1.223 0 0 1-1.744.061c-1.468-1.388-2.243-3.454-2.184-5.817.034-1.347.343-2.696.881-3.913H8.63v11.16c0 6.153 4.939 11.159 11.009 11.159h6.766c6.07 0 11.008-5.006 11.008-11.16v-11.16h-9.278c-.682 0-1.234-.56-1.234-1.25 0-.691.552-1.251 1.234-1.251h10.512c.682 0 1.234.56 1.234 1.25v2.144h1.965c3.393 0 6.154 2.799 6.154 6.24zm-2.468 0c0-2.06-1.654-3.737-3.686-3.737H39.88v9.874h1.965c2.032 0 3.686-1.676 3.686-3.737z"/><path fill="#c7b299" d="M46.043 42.749c0 .69-.552 1.25-1.234 1.25H1.234C.552 44 0 43.44 0 42.75c0-.691.552-1.251 1.234-1.251h43.575c.682 0 1.234.56 1.234 1.25zM19.586 16.396c.054-2.162.818-4.33 2.096-5.946 1.945-2.461 1.988-6.486.087-8.284a1.263 1.263 0 0 1-.06-1.768 1.223 1.223 0 0 1 1.744-.061c3.165 2.994 2.622 8.557.155 11.677-1.818 2.3-2.27 6.368-.155 8.37.498.471.525 1.263.06 1.768a1.222 1.222 0 0 1-1.744.06c-1.467-1.387-2.243-3.453-2.183-5.816zM48 19.614v2.4c0 3.44-2.76 6.24-6.154 6.24H39.09c-1.87 5.27-6.85 9.05-12.686 9.05H19.64c-7.431 0-13.476-6.129-13.476-13.662v-12.41c0-.691.552-1.251 1.234-1.251h7.915c1.607-2.476 1.535-6.127-.25-7.815a1.263 1.263 0 0 1-.06-1.768 1.222 1.222 0 0 1 1.745-.06c3.164 2.993 2.621 8.556.155 11.676-1.819 2.3-2.272 6.369-.155 8.37.498.471.525 1.263.06 1.768a1.223 1.223 0 0 1-1.744.061c-1.468-1.388-2.243-3.454-2.184-5.817.034-1.347.343-2.696.881-3.913H8.63v11.16c0 6.153 4.939 11.159 11.009 11.159h6.766c6.07 0 11.008-5.006 11.008-11.16v-11.16h-9.278c-.682 0-1.234-.56-1.234-1.25 0-.691.552-1.251 1.234-1.251h10.512c.682 0 1.234.56 1.234 1.25v2.144h1.965c3.393 0 6.154 2.799 6.154 6.24zm-2.468 0c0-2.06-1.654-3.737-3.686-3.737H39.88v9.874h1.965c2.032 0 3.686-1.676 3.686-3.737z"/></g></g></svg>