<svg xmlns="http://www.w3.org/2000/svg" width="26" height="26" viewBox="0 0 26 26"><g><g><path d="M23.5 11.242l-1.927 1.928-3.187 3.189c-.153.17-.34.324-.511.46a6.24 6.24 0 0 1-6.153.905 6.038 6.038 0 0 1-2.08-1.365l2.642-2.644a2.446 2.446 0 0 0 3.46 0l2.028-2.029L20.857 8.6a2.447 2.447 0 1 0-3.46-3.462l-2.454 2.456a7.068 7.068 0 0 0-4.908-.376l4.72-4.723c2.404-2.405 6.341-2.405 8.744 0 2.42 2.42 2.42 6.343 0 8.748zm-7.654 7.607l-4.618 4.672c-2.403 2.406-6.34 2.406-8.744 0-2.403-2.404-2.403-6.343 0-8.747l5.113-5.118c.068-.067.154-.153.239-.221a6.191 6.191 0 0 1 6.426-1.142c.75.29 1.465.75 2.079 1.363l-2.642 2.645a2.446 2.446 0 0 0-3.46 0l-5.113 5.115a2.447 2.447 0 1 0 3.46 3.463l2.352-2.355c2.011.803 2.557.87 4.908.325z"/><path fill="#c7b299" d="M23.5 11.242l-1.927 1.928-3.187 3.189c-.153.17-.34.324-.511.46a6.24 6.24 0 0 1-6.153.905 6.038 6.038 0 0 1-2.08-1.365l2.642-2.644a2.446 2.446 0 0 0 3.46 0l2.028-2.029L20.857 8.6a2.447 2.447 0 1 0-3.46-3.462l-2.454 2.456a7.068 7.068 0 0 0-4.908-.376l4.72-4.723c2.404-2.405 6.341-2.405 8.744 0 2.42 2.42 2.42 6.343 0 8.748zm-7.654 7.607l-4.618 4.672c-2.403 2.406-6.34 2.406-8.744 0-2.403-2.404-2.403-6.343 0-8.747l5.113-5.118c.068-.067.154-.153.239-.221a6.191 6.191 0 0 1 6.426-1.142c.75.29 1.465.75 2.079 1.363l-2.642 2.645a2.446 2.446 0 0 0-3.46 0l-5.113 5.115a2.447 2.447 0 1 0 3.46 3.463l2.352-2.355c2.011.803 2.557.87 4.908.325z"/></g></g></svg>