<svg xmlns="http://www.w3.org/2000/svg" width="64" height="56" viewBox="0 0 64 56"><g><g><path d="M31.854 19.905L26.6 10.713h10.508zm-1.314.766H20.032l5.254-9.191zm2.628 0l5.254-9.191 5.254 9.191zm10.508 1.53l-5.254 9.189-5.254-9.188zm-13.136 0l-5.254 9.189-5.254-9.188zm-11.822.766l5.253 9.187H13.465zm21.02 9.187l5.252-9.187 5.253 9.187zm-2.63-22.97H26.6l5.254-9.19zm2.63 24.502h10.505l-5.253 9.188zm-26.273 0H23.97l-5.253 9.188zm-1.314.765l5.253 9.19H6.897zm34.152 9.19l5.254-9.19 5.254 9.19zm10.508 1.53l-5.254 9.188-5.254-9.187zm-13.135 0l-5.254 9.188-5.254-9.187zm-36.779 0h10.507L12.15 54.36zm-1.315.768l5.254 9.189H.33zm26.272 0l5.254 9.189H26.6zm13.136 0l5.253 9.189H39.738zm18.387 9.189H52.873l5.252-9.189z"/><path fill="#fff" d="M31.854 19.905L26.6 10.713h10.508zm-1.314.766H20.032l5.254-9.191zm2.628 0l5.254-9.191 5.254 9.191zm10.508 1.53l-5.254 9.189-5.254-9.188zm-13.136 0l-5.254 9.189-5.254-9.188zm-11.822.766l5.253 9.187H13.465zm21.02 9.187l5.252-9.187 5.253 9.187zm-2.63-22.97H26.6l5.254-9.19zm2.63 24.502h10.505l-5.253 9.188zm-26.273 0H23.97l-5.253 9.188zm-1.314.765l5.253 9.19H6.897zm34.152 9.19l5.254-9.19 5.254 9.19zm10.508 1.53l-5.254 9.188-5.254-9.187zm-13.135 0l-5.254 9.188-5.254-9.187zm-36.779 0h10.507L12.15 54.36zm-1.315.768l5.254 9.189H.33zm26.272 0l5.254 9.189H26.6zm13.136 0l5.253 9.189H39.738zm18.387 9.189H52.873l5.252-9.189z"/></g></g></svg>